<mxfile host="app.diagrams.net" agent="Mozilla/5.0 (Windows NT 10.0; Win64; x64) AppleWebKit/537.36 (KHTML, like Gecko) Chrome/135.0.0.0 Safari/537.36" version="26.2.13">
  <diagram name="Page-1" id="e7e014a7-5840-1c2e-5031-d8a46d1fe8dd">
    <mxGraphModel dx="2094" dy="766" grid="1" gridSize="10" guides="1" tooltips="1" connect="1" arrows="1" fold="1" page="1" pageScale="1" pageWidth="1169" pageHeight="826" background="none" math="0" shadow="0">
      <root>
        <mxCell id="0" />
        <mxCell id="1" parent="0" />
        <mxCell id="2" value="Khách hàng" style="swimlane;whiteSpace=wrap" parent="1" vertex="1">
          <mxGeometry x="164.5" y="128" width="280" height="872" as="geometry" />
        </mxCell>
        <mxCell id="tDytSIDS7ZekHZOsccYt-97" value="" style="edgeStyle=orthogonalEdgeStyle;rounded=0;orthogonalLoop=1;jettySize=auto;html=1;" parent="2" source="5" edge="1">
          <mxGeometry relative="1" as="geometry">
            <mxPoint x="100.49999999999977" y="55" as="targetPoint" />
          </mxGeometry>
        </mxCell>
        <mxCell id="5" value="" style="ellipse;shape=startState;fillColor=#000000;strokeColor=#ff0000;" parent="2" vertex="1">
          <mxGeometry x="21.5" y="40" width="30" height="30" as="geometry" />
        </mxCell>
        <mxCell id="9" value="" style="endArrow=open;strokeColor=#000000;endFill=1;rounded=0;exitX=0.5;exitY=1;exitDx=0;exitDy=0;entryX=0.5;entryY=0;entryDx=0;entryDy=0;" parent="2" source="tDytSIDS7ZekHZOsccYt-41" target="tDytSIDS7ZekHZOsccYt-42" edge="1">
          <mxGeometry relative="1" as="geometry">
            <mxPoint x="160.66" y="86" as="sourcePoint" />
            <mxPoint x="161.16" y="118" as="targetPoint" />
            <Array as="points">
              <mxPoint x="163.5" y="102" />
              <mxPoint x="62.5" y="102" />
            </Array>
          </mxGeometry>
        </mxCell>
        <mxCell id="11" value="" style="endArrow=open;strokeColor=#000000;endFill=1;rounded=0;exitX=1;exitY=0.5;exitDx=0;exitDy=0;" parent="2" source="tDytSIDS7ZekHZOsccYt-42" edge="1">
          <mxGeometry relative="1" as="geometry">
            <mxPoint x="163.16" y="155" as="sourcePoint" />
            <mxPoint x="173.5" y="131" as="targetPoint" />
          </mxGeometry>
        </mxCell>
        <mxCell id="tDytSIDS7ZekHZOsccYt-41" value="Duyệt sản phẩm" style="rounded=1;whiteSpace=wrap;html=1;" parent="2" vertex="1">
          <mxGeometry x="101" y="35" width="125" height="40" as="geometry" />
        </mxCell>
        <mxCell id="tDytSIDS7ZekHZOsccYt-42" value="Chọn sản phẩm muốn mua" style="rounded=1;whiteSpace=wrap;html=1;" parent="2" vertex="1">
          <mxGeometry x="15.5" y="112" width="94.5" height="37" as="geometry" />
        </mxCell>
        <mxCell id="tDytSIDS7ZekHZOsccYt-43" value="Thêm sản phẩm vào giỏ hàng" style="rounded=1;whiteSpace=wrap;html=1;" parent="2" vertex="1">
          <mxGeometry x="175" y="110.5" width="98.5" height="40" as="geometry" />
        </mxCell>
        <mxCell id="tDytSIDS7ZekHZOsccYt-49" value="Tiến hành thanh toán" style="rounded=1;whiteSpace=wrap;html=1;" parent="2" vertex="1">
          <mxGeometry x="140" y="272" width="95" height="40" as="geometry" />
        </mxCell>
        <mxCell id="tDytSIDS7ZekHZOsccYt-50" value="Nhập thông tin giao hàng" style="rounded=1;whiteSpace=wrap;html=1;" parent="2" vertex="1">
          <mxGeometry x="13.5" y="272" width="85" height="40" as="geometry" />
        </mxCell>
        <mxCell id="tDytSIDS7ZekHZOsccYt-53" value="" style="endArrow=open;strokeColor=#000000;endFill=1;rounded=0;exitX=0;exitY=0.5;exitDx=0;exitDy=0;entryX=1;entryY=0.5;entryDx=0;entryDy=0;" parent="2" source="tDytSIDS7ZekHZOsccYt-49" target="tDytSIDS7ZekHZOsccYt-50" edge="1">
          <mxGeometry relative="1" as="geometry">
            <mxPoint x="163.16" y="395" as="sourcePoint" />
            <mxPoint x="105.5" y="292" as="targetPoint" />
          </mxGeometry>
        </mxCell>
        <mxCell id="tDytSIDS7ZekHZOsccYt-78" value="" style="edgeStyle=orthogonalEdgeStyle;rounded=0;orthogonalLoop=1;jettySize=auto;html=1;" parent="2" source="tDytSIDS7ZekHZOsccYt-54" target="tDytSIDS7ZekHZOsccYt-77" edge="1">
          <mxGeometry relative="1" as="geometry" />
        </mxCell>
        <mxCell id="tDytSIDS7ZekHZOsccYt-54" value="Chọn phương thức thanh toán" style="rounded=1;whiteSpace=wrap;html=1;" parent="2" vertex="1">
          <mxGeometry x="13.5" y="352" width="96.5" height="40" as="geometry" />
        </mxCell>
        <mxCell id="tDytSIDS7ZekHZOsccYt-55" value="" style="endArrow=open;strokeColor=#000000;endFill=1;rounded=0;exitX=0.5;exitY=1;exitDx=0;exitDy=0;entryX=0.437;entryY=-0.05;entryDx=0;entryDy=0;entryPerimeter=0;" parent="2" source="tDytSIDS7ZekHZOsccYt-50" target="tDytSIDS7ZekHZOsccYt-54" edge="1">
          <mxGeometry relative="1" as="geometry">
            <mxPoint x="163.16" y="473" as="sourcePoint" />
            <mxPoint x="163.66" y="515" as="targetPoint" />
          </mxGeometry>
        </mxCell>
        <mxCell id="tDytSIDS7ZekHZOsccYt-71" value="Thông báo hết hàng" style="rounded=1;whiteSpace=wrap;html=1;fillColor=#FFFFFF;" parent="2" vertex="1">
          <mxGeometry x="125.5" y="173" width="120" height="38" as="geometry" />
        </mxCell>
        <mxCell id="tDytSIDS7ZekHZOsccYt-76" value="" style="endArrow=classic;html=1;rounded=0;exitX=0;exitY=0.5;exitDx=0;exitDy=0;entryX=0.142;entryY=0.973;entryDx=0;entryDy=0;entryPerimeter=0;" parent="2" source="tDytSIDS7ZekHZOsccYt-71" target="tDytSIDS7ZekHZOsccYt-41" edge="1">
          <mxGeometry width="50" height="50" relative="1" as="geometry">
            <mxPoint x="401.5" y="277" as="sourcePoint" />
            <mxPoint x="451.5" y="227" as="targetPoint" />
            <Array as="points">
              <mxPoint x="5.5" y="192" />
              <mxPoint x="5.5" y="92" />
              <mxPoint x="118.5" y="92" />
            </Array>
          </mxGeometry>
        </mxCell>
        <mxCell id="tDytSIDS7ZekHZOsccYt-77" value="Xác nhận đặt hàng" style="rounded=1;whiteSpace=wrap;html=1;" parent="2" vertex="1">
          <mxGeometry x="13.5" y="432" width="96.5" height="40" as="geometry" />
        </mxCell>
        <mxCell id="tDytSIDS7ZekHZOsccYt-111" value="" style="edgeStyle=orthogonalEdgeStyle;rounded=0;orthogonalLoop=1;jettySize=auto;html=1;exitX=0.324;exitY=0.85;exitDx=0;exitDy=0;exitPerimeter=0;" parent="2" source="tDytSIDS7ZekHZOsccYt-90" edge="1">
          <mxGeometry relative="1" as="geometry">
            <mxPoint x="55.5" y="722" as="sourcePoint" />
            <mxPoint x="56.018518518518476" y="752" as="targetPoint" />
          </mxGeometry>
        </mxCell>
        <mxCell id="tDytSIDS7ZekHZOsccYt-90" value="Nhận thông báo đặt hàng thành công" style="rounded=1;whiteSpace=wrap;html=1;" parent="2" vertex="1">
          <mxGeometry x="15.5" y="678" width="125" height="40" as="geometry" />
        </mxCell>
        <mxCell id="tDytSIDS7ZekHZOsccYt-118" value="" style="edgeStyle=orthogonalEdgeStyle;rounded=0;orthogonalLoop=1;jettySize=auto;html=1;" parent="2" source="tDytSIDS7ZekHZOsccYt-110" edge="1">
          <mxGeometry relative="1" as="geometry">
            <mxPoint x="177.2550000000001" y="771" as="targetPoint" />
          </mxGeometry>
        </mxCell>
        <mxCell id="tDytSIDS7ZekHZOsccYt-110" value="Theo dõi đơn hàng" style="whiteSpace=wrap;html=1;rounded=1;" parent="2" vertex="1">
          <mxGeometry x="15.379999999999999" y="752" width="81.25" height="38" as="geometry" />
        </mxCell>
        <mxCell id="tDytSIDS7ZekHZOsccYt-119" value="" style="ellipse;shape=startState;fillColor=#000000;strokeColor=#ff0000;" parent="2" vertex="1">
          <mxGeometry x="172.5" y="756" width="30" height="30" as="geometry" />
        </mxCell>
        <mxCell id="3" value="Hệ thống" style="swimlane;whiteSpace=wrap" parent="1" vertex="1">
          <mxGeometry x="443.5" y="128" width="286.5" height="872" as="geometry" />
        </mxCell>
        <mxCell id="tDytSIDS7ZekHZOsccYt-44" value="Kiểm tra tồn kho" style="rounded=1;whiteSpace=wrap;html=1;" parent="3" vertex="1">
          <mxGeometry x="80" y="72" width="120" height="40" as="geometry" />
        </mxCell>
        <mxCell id="tDytSIDS7ZekHZOsccYt-46" value="" style="endArrow=open;strokeColor=#000000;endFill=1;rounded=0;exitX=0.5;exitY=1;exitDx=0;exitDy=0;entryX=0.5;entryY=0;entryDx=0;entryDy=0;" parent="3" edge="1">
          <mxGeometry relative="1" as="geometry">
            <mxPoint x="133.82999999999998" y="110" as="sourcePoint" />
            <mxPoint x="133.82999999999998" y="153" as="targetPoint" />
          </mxGeometry>
        </mxCell>
        <mxCell id="tDytSIDS7ZekHZOsccYt-47" value="Cập nhật giỏ hàng" style="rounded=1;whiteSpace=wrap;html=1;" parent="3" vertex="1">
          <mxGeometry x="74.5" y="272" width="120" height="40" as="geometry" />
        </mxCell>
        <mxCell id="tDytSIDS7ZekHZOsccYt-80" value="" style="edgeStyle=orthogonalEdgeStyle;rounded=0;orthogonalLoop=1;jettySize=auto;html=1;" parent="3" source="tDytSIDS7ZekHZOsccYt-56" target="tDytSIDS7ZekHZOsccYt-79" edge="1">
          <mxGeometry relative="1" as="geometry" />
        </mxCell>
        <mxCell id="tDytSIDS7ZekHZOsccYt-56" value="Kiểm tra tồn kho" style="rounded=1;whiteSpace=wrap;html=1;" parent="3" vertex="1">
          <mxGeometry x="74.5" y="352" width="120" height="40" as="geometry" />
        </mxCell>
        <mxCell id="tDytSIDS7ZekHZOsccYt-88" value="" style="edgeStyle=orthogonalEdgeStyle;rounded=0;orthogonalLoop=1;jettySize=auto;html=1;" parent="3" source="tDytSIDS7ZekHZOsccYt-57" target="tDytSIDS7ZekHZOsccYt-59" edge="1">
          <mxGeometry relative="1" as="geometry">
            <Array as="points">
              <mxPoint x="135" y="592" />
              <mxPoint x="135" y="592" />
            </Array>
          </mxGeometry>
        </mxCell>
        <mxCell id="tDytSIDS7ZekHZOsccYt-57" value="Tạo đơn hàng&amp;nbsp; PENDING" style="rounded=1;whiteSpace=wrap;html=1;" parent="3" vertex="1">
          <mxGeometry x="70" y="542" width="130" height="40" as="geometry" />
        </mxCell>
        <mxCell id="tDytSIDS7ZekHZOsccYt-58" value="Giảm số lượng tồn kho" style="rounded=1;whiteSpace=wrap;html=1;" parent="3" vertex="1">
          <mxGeometry x="4" y="632" width="83.5" height="40" as="geometry" />
        </mxCell>
        <mxCell id="tDytSIDS7ZekHZOsccYt-59" value="Xóa giỏ hàng" style="rounded=1;whiteSpace=wrap;html=1;" parent="3" vertex="1">
          <mxGeometry x="92.25" y="632" width="84.5" height="40" as="geometry" />
        </mxCell>
        <mxCell id="tDytSIDS7ZekHZOsccYt-62" value="" style="endArrow=open;strokeColor=#000000;endFill=1;rounded=0;exitX=0.5;exitY=1;exitDx=0;exitDy=0;entryX=0.5;entryY=0;entryDx=0;entryDy=0;" parent="3" edge="1" source="tDytSIDS7ZekHZOsccYt-79">
          <mxGeometry relative="1" as="geometry">
            <mxPoint x="134.04999999999998" y="499" as="sourcePoint" />
            <mxPoint x="134.04999999999998" y="542" as="targetPoint" />
            <Array as="points">
              <mxPoint x="134.5" y="502" />
            </Array>
          </mxGeometry>
        </mxCell>
        <mxCell id="tDytSIDS7ZekHZOsccYt-84" value="Có" style="edgeLabel;html=1;align=center;verticalAlign=middle;resizable=0;points=[];" parent="tDytSIDS7ZekHZOsccYt-62" vertex="1" connectable="0">
          <mxGeometry x="-0.4738" relative="1" as="geometry">
            <mxPoint as="offset" />
          </mxGeometry>
        </mxCell>
        <mxCell id="tDytSIDS7ZekHZOsccYt-63" value="" style="endArrow=open;strokeColor=#000000;endFill=1;rounded=0;exitX=0.5;exitY=1;exitDx=0;exitDy=0;entryX=0.587;entryY=-0.021;entryDx=0;entryDy=0;entryPerimeter=0;" parent="3" target="tDytSIDS7ZekHZOsccYt-58" edge="1">
          <mxGeometry relative="1" as="geometry">
            <mxPoint x="134.04999999999998" y="579" as="sourcePoint" />
            <mxPoint x="134.04999999999998" y="622" as="targetPoint" />
            <Array as="points">
              <mxPoint x="134.5" y="592" />
              <mxPoint x="53.5" y="592" />
            </Array>
          </mxGeometry>
        </mxCell>
        <mxCell id="tDytSIDS7ZekHZOsccYt-65" value="Hiển thị trang xác nhận đơn hàng" style="rounded=1;whiteSpace=wrap;html=1;" parent="3" vertex="1">
          <mxGeometry x="181.75" y="632" width="88.25" height="40" as="geometry" />
        </mxCell>
        <mxCell id="tDytSIDS7ZekHZOsccYt-69" value="" style="edgeStyle=orthogonalEdgeStyle;rounded=0;orthogonalLoop=1;jettySize=auto;html=1;fillColor=#FF3333;strokeColor=#000000;" parent="3" source="tDytSIDS7ZekHZOsccYt-68" target="tDytSIDS7ZekHZOsccYt-47" edge="1">
          <mxGeometry relative="1" as="geometry" />
        </mxCell>
        <mxCell id="tDytSIDS7ZekHZOsccYt-75" value="Có" style="edgeLabel;html=1;align=center;verticalAlign=middle;resizable=0;points=[];" parent="tDytSIDS7ZekHZOsccYt-69" vertex="1" connectable="0">
          <mxGeometry x="0.1645" y="-3" relative="1" as="geometry">
            <mxPoint as="offset" />
          </mxGeometry>
        </mxCell>
        <mxCell id="tDytSIDS7ZekHZOsccYt-68" value="Còn đủ hàng" style="rhombus;whiteSpace=wrap;html=1;fillColor=#FFFF66;" parent="3" vertex="1">
          <mxGeometry x="94.5" y="152" width="80" height="80" as="geometry" />
        </mxCell>
        <mxCell id="tDytSIDS7ZekHZOsccYt-79" value="Còn đủ hàng ?" style="rhombus;whiteSpace=wrap;html=1;rounded=1;fillColor=#FFFF66;" parent="3" vertex="1">
          <mxGeometry x="26.5" y="422" width="80" height="80" as="geometry" />
        </mxCell>
        <mxCell id="tDytSIDS7ZekHZOsccYt-89" value="" style="endArrow=classic;html=1;rounded=0;exitX=0.5;exitY=1;exitDx=0;exitDy=0;entryX=0.5;entryY=0;entryDx=0;entryDy=0;" parent="3" source="tDytSIDS7ZekHZOsccYt-57" edge="1">
          <mxGeometry width="50" height="50" relative="1" as="geometry">
            <mxPoint x="236.5" y="602" as="sourcePoint" />
            <mxPoint x="228.74999999999977" y="632" as="targetPoint" />
            <Array as="points">
              <mxPoint x="135.5" y="592" />
              <mxPoint x="228.5" y="592" />
            </Array>
          </mxGeometry>
        </mxCell>
        <mxCell id="tDytSIDS7ZekHZOsccYt-91" value="" style="endArrow=none;html=1;rounded=0;entryX=1;entryY=0.5;entryDx=0;entryDy=0;" parent="3" target="tDytSIDS7ZekHZOsccYt-90" edge="1">
          <mxGeometry width="50" height="50" relative="1" as="geometry">
            <mxPoint x="306.5" y="698" as="sourcePoint" />
            <mxPoint x="-80" y="758" as="targetPoint" />
            <Array as="points">
              <mxPoint x="-40" y="698" />
            </Array>
          </mxGeometry>
        </mxCell>
        <mxCell id="tDytSIDS7ZekHZOsccYt-81" value="Thông báo sản phẩm đã hết" style="rounded=1;whiteSpace=wrap;html=1;" parent="3" vertex="1">
          <mxGeometry x="194.5" y="442" width="85.5" height="40" as="geometry" />
        </mxCell>
        <mxCell id="b1Y3U7x39PKyTr3SyVIp-38" value="" style="endArrow=classic;html=1;rounded=0;exitX=1;exitY=0.5;exitDx=0;exitDy=0;entryX=0;entryY=0.5;entryDx=0;entryDy=0;" edge="1" parent="3" source="tDytSIDS7ZekHZOsccYt-79" target="tDytSIDS7ZekHZOsccYt-81">
          <mxGeometry width="50" height="50" relative="1" as="geometry">
            <mxPoint x="106.5" y="482" as="sourcePoint" />
            <mxPoint x="156.5" y="432" as="targetPoint" />
          </mxGeometry>
        </mxCell>
        <mxCell id="b1Y3U7x39PKyTr3SyVIp-39" value="" style="endArrow=classic;html=1;rounded=0;exitX=0.5;exitY=0;exitDx=0;exitDy=0;entryX=1;entryY=0.5;entryDx=0;entryDy=0;" edge="1" parent="3" source="tDytSIDS7ZekHZOsccYt-81" target="tDytSIDS7ZekHZOsccYt-47">
          <mxGeometry width="50" height="50" relative="1" as="geometry">
            <mxPoint x="146.5" y="482" as="sourcePoint" />
            <mxPoint x="196.5" y="432" as="targetPoint" />
            <Array as="points">
              <mxPoint x="237.5" y="292" />
            </Array>
          </mxGeometry>
        </mxCell>
        <mxCell id="4" value="Quản trị viên" style="swimlane;whiteSpace=wrap;startSize=23;" parent="1" vertex="1">
          <mxGeometry x="730.5" y="128" width="360.01" height="872" as="geometry" />
        </mxCell>
        <mxCell id="tDytSIDS7ZekHZOsccYt-103" value="" style="edgeStyle=orthogonalEdgeStyle;rounded=0;orthogonalLoop=1;jettySize=auto;html=1;" parent="4" source="tDytSIDS7ZekHZOsccYt-99" target="tDytSIDS7ZekHZOsccYt-102" edge="1">
          <mxGeometry relative="1" as="geometry" />
        </mxCell>
        <mxCell id="tDytSIDS7ZekHZOsccYt-99" value="Xem đơn hàng mới" style="rounded=1;whiteSpace=wrap;html=1;" parent="4" vertex="1">
          <mxGeometry x="172.19" y="582" width="104.5" height="40" as="geometry" />
        </mxCell>
        <mxCell id="tDytSIDS7ZekHZOsccYt-107" value="" style="edgeStyle=orthogonalEdgeStyle;rounded=0;orthogonalLoop=1;jettySize=auto;html=1;" parent="4" source="tDytSIDS7ZekHZOsccYt-102" target="tDytSIDS7ZekHZOsccYt-106" edge="1">
          <mxGeometry relative="1" as="geometry" />
        </mxCell>
        <mxCell id="tDytSIDS7ZekHZOsccYt-102" value="Cập nhật trạng thái PROCESSING" style="whiteSpace=wrap;html=1;rounded=1;" parent="4" vertex="1">
          <mxGeometry x="172.19" y="642" width="105.5" height="42" as="geometry" />
        </mxCell>
        <mxCell id="tDytSIDS7ZekHZOsccYt-109" value="" style="edgeStyle=orthogonalEdgeStyle;rounded=0;orthogonalLoop=1;jettySize=auto;html=1;" parent="4" source="tDytSIDS7ZekHZOsccYt-106" target="tDytSIDS7ZekHZOsccYt-108" edge="1">
          <mxGeometry relative="1" as="geometry" />
        </mxCell>
        <mxCell id="tDytSIDS7ZekHZOsccYt-106" value="Chuẩn bị hàng" style="rounded=1;whiteSpace=wrap;html=1;" parent="4" vertex="1">
          <mxGeometry x="37.19" y="643" width="84.5" height="40" as="geometry" />
        </mxCell>
        <mxCell id="tDytSIDS7ZekHZOsccYt-114" value="" style="edgeStyle=orthogonalEdgeStyle;rounded=0;orthogonalLoop=1;jettySize=auto;html=1;" parent="4" source="tDytSIDS7ZekHZOsccYt-108" target="tDytSIDS7ZekHZOsccYt-113" edge="1">
          <mxGeometry relative="1" as="geometry" />
        </mxCell>
        <mxCell id="tDytSIDS7ZekHZOsccYt-108" value="Cập nhật trạng thái SHIPPED + mã vận đơn" style="whiteSpace=wrap;html=1;rounded=1;" parent="4" vertex="1">
          <mxGeometry x="8.32" y="723" width="142.25" height="40" as="geometry" />
        </mxCell>
        <mxCell id="tDytSIDS7ZekHZOsccYt-113" value="Cập nhật trạng thái DELIVERED" style="whiteSpace=wrap;html=1;rounded=1;" parent="4" vertex="1">
          <mxGeometry x="241.7" y="722" width="109.99" height="40" as="geometry" />
        </mxCell>
        <mxCell id="20" value="" style="endArrow=open;strokeColor=#000000;endFill=1;rounded=0;exitX=1;exitY=0.5;exitDx=0;exitDy=0;entryX=0;entryY=0.5;entryDx=0;entryDy=0;" parent="1" source="tDytSIDS7ZekHZOsccYt-43" target="tDytSIDS7ZekHZOsccYt-44" edge="1">
          <mxGeometry relative="1" as="geometry">
            <mxPoint x="344.5" y="426.44" as="sourcePoint" />
            <mxPoint x="460" y="426.44" as="targetPoint" />
            <Array as="points">
              <mxPoint x="500" y="259" />
              <mxPoint x="500" y="220" />
            </Array>
          </mxGeometry>
        </mxCell>
        <mxCell id="tDytSIDS7ZekHZOsccYt-48" value="" style="endArrow=open;strokeColor=#000000;endFill=1;rounded=0;exitX=0;exitY=0.5;exitDx=0;exitDy=0;entryX=1;entryY=0.5;entryDx=0;entryDy=0;" parent="1" source="tDytSIDS7ZekHZOsccYt-47" target="tDytSIDS7ZekHZOsccYt-49" edge="1">
          <mxGeometry relative="1" as="geometry">
            <mxPoint x="500" y="350" as="sourcePoint" />
            <mxPoint x="360" y="480" as="targetPoint" />
          </mxGeometry>
        </mxCell>
        <mxCell id="tDytSIDS7ZekHZOsccYt-60" value="" style="endArrow=open;strokeColor=#000000;endFill=1;rounded=0;exitX=1;exitY=0.5;exitDx=0;exitDy=0;entryX=0;entryY=0.5;entryDx=0;entryDy=0;" parent="1" source="tDytSIDS7ZekHZOsccYt-77" target="tDytSIDS7ZekHZOsccYt-56" edge="1">
          <mxGeometry relative="1" as="geometry">
            <mxPoint x="371" y="680" as="sourcePoint" />
            <mxPoint x="530" y="480" as="targetPoint" />
            <Array as="points">
              <mxPoint x="300" y="580" />
              <mxPoint x="300" y="500" />
            </Array>
          </mxGeometry>
        </mxCell>
        <mxCell id="tDytSIDS7ZekHZOsccYt-72" value="" style="edgeStyle=orthogonalEdgeStyle;rounded=0;orthogonalLoop=1;jettySize=auto;html=1;strokeColor=#FF3333;" parent="1" source="tDytSIDS7ZekHZOsccYt-68" target="tDytSIDS7ZekHZOsccYt-71" edge="1">
          <mxGeometry relative="1" as="geometry">
            <Array as="points">
              <mxPoint x="440" y="320" />
              <mxPoint x="440" y="320" />
            </Array>
          </mxGeometry>
        </mxCell>
        <mxCell id="tDytSIDS7ZekHZOsccYt-74" value="&lt;font style=&quot;color: light-dark(rgb(252, 3, 3), rgb(237, 237, 237));&quot;&gt;Không&lt;/font&gt;" style="edgeLabel;html=1;align=center;verticalAlign=middle;resizable=0;points=[];" parent="tDytSIDS7ZekHZOsccYt-72" vertex="1" connectable="0">
          <mxGeometry x="-0.789" y="-3" relative="1" as="geometry">
            <mxPoint as="offset" />
          </mxGeometry>
        </mxCell>
        <mxCell id="tDytSIDS7ZekHZOsccYt-92" value="" style="endArrow=classic;html=1;rounded=0;exitX=0.5;exitY=1;exitDx=0;exitDy=0;" parent="1" source="tDytSIDS7ZekHZOsccYt-65" edge="1">
          <mxGeometry width="50" height="50" relative="1" as="geometry">
            <mxPoint x="760" y="700" as="sourcePoint" />
            <mxPoint x="669" y="830" as="targetPoint" />
          </mxGeometry>
        </mxCell>
        <mxCell id="tDytSIDS7ZekHZOsccYt-93" value="" style="endArrow=classic;html=1;rounded=0;exitX=0.5;exitY=1;exitDx=0;exitDy=0;" parent="1" source="tDytSIDS7ZekHZOsccYt-59" edge="1">
          <mxGeometry width="50" height="50" relative="1" as="geometry">
            <mxPoint x="679" y="810" as="sourcePoint" />
            <mxPoint x="578" y="830" as="targetPoint" />
          </mxGeometry>
        </mxCell>
        <mxCell id="tDytSIDS7ZekHZOsccYt-94" value="" style="endArrow=classic;html=1;rounded=0;exitX=0.5;exitY=1;exitDx=0;exitDy=0;" parent="1" source="tDytSIDS7ZekHZOsccYt-58" edge="1">
          <mxGeometry width="50" height="50" relative="1" as="geometry">
            <mxPoint x="588" y="810" as="sourcePoint" />
            <mxPoint x="490" y="830" as="targetPoint" />
          </mxGeometry>
        </mxCell>
        <mxCell id="b1Y3U7x39PKyTr3SyVIp-40" value="" style="endArrow=classic;html=1;rounded=0;entryX=0;entryY=0.5;entryDx=0;entryDy=0;" edge="1" parent="1" target="tDytSIDS7ZekHZOsccYt-99">
          <mxGeometry width="50" height="50" relative="1" as="geometry">
            <mxPoint x="750" y="830" as="sourcePoint" />
            <mxPoint x="870" y="710" as="targetPoint" />
            <Array as="points">
              <mxPoint x="750" y="730" />
            </Array>
          </mxGeometry>
        </mxCell>
      </root>
    </mxGraphModel>
  </diagram>
</mxfile>
